# xmcd
#
# Track frame offsets: 
#        150
#        20978
#        44998
#        63475
#        96889
#        133032
#        166244
#        191215
#        212374
#        216147
#        233603
#        261648
#
# Disc length: 4070 seconds
#
# Revision: 0
# Processed by: cddbd v1.5.2PL0 Copyright (c) Steve Scherf et al.
# Submitted via: ExactAudioCopyFreeDBPlugin 1.0
#
DISCID=bc0fe40c
DTITLE=Ken Hensley and Live Fire - 2008 - Blood On The Highway [DVD] Cd 
DTITLE=1
DYEAR=2008
DGENRE=
TTITLE0=Just The Beginning 
TTITLE1=We're On Our Way 
TTITLE2=Blood On The Highway 
TTITLE3=You've Got It 
TTITLE4=It Won't Last 
TTITLE5=Think Twice 
TTITLE6=There Comes A Time 
TTITLE7=Okay [This House Is Down]
TTITLE8=What You Got It 
TTITLE9=Postscript 
TTITLE10=I Did It All 
TTITLE11=The Last Dance 
EXTD=
EXTT0=
EXTT1=
EXTT2=
EXTT3=
EXTT4=
EXTT5=
EXTT6=
EXTT7=
EXTT8=
EXTT9=
EXTT10=
EXTT11=
PLAYORDER=
